<?xml version="1.0" encoding="UTF-8"?>
<svg width="105px" height="46px" viewBox="0 0 105 46" version="1.1" xmlns="http://www.w3.org/2000/svg" xmlns:xlink="http://www.w3.org/1999/xlink">
    <!-- Generator: Sketch 52.6 (67491) - http://www.bohemiancoding.com/sketch -->
    <title>Wordmark/bmarketplace/Solid</title>
    <desc>Created with Sketch.</desc>
    <g id="Wordmark/bmarketplace/Solid" stroke="none" stroke-width="1" fill="none" fill-rule="evenodd" fill-opacity="0.592752">
        <path d="M12.6134494,17.6593576 C12.6134494,17.1679644 12.5218943,16.7021715 12.3387814,16.261965 C12.1556685,15.8217585 11.9013488,15.4378633 11.5758146,15.1102678 C11.2502805,14.7826722 10.8738873,14.5216235 10.4466238,14.3271136 C10.0193603,14.1326038 9.55141202,14.0353503 9.04276497,14.0353503 C8.5544638,14.0353503 8.09668831,14.1274852 7.66942479,14.3117577 C7.24216126,14.4960302 6.87085448,14.7519603 6.55549331,15.0795558 C6.24013214,15.4071514 5.98581242,15.7910466 5.79252654,16.2312531 C5.59924066,16.6714596 5.50259917,17.1372524 5.50259917,17.6286457 C5.50259917,18.120039 5.59415427,18.5807133 5.77726721,19.0106824 C5.96038015,19.4406515 6.21469986,19.8143096 6.54023397,20.1316677 C6.86576809,20.4490259 7.24724766,20.704956 7.68468412,20.8994659 C8.12212059,21.0939757 8.58498247,21.1912292 9.07328364,21.1912292 C9.56158481,21.1912292 10.0193603,21.0990943 10.4466238,20.9148218 C10.8738873,20.7305494 11.2451941,20.4746192 11.5605553,20.1470237 C11.8759165,19.8194282 12.1302362,19.4406515 12.3235221,19.0106824 C12.5168079,18.5807133 12.6134494,18.1302762 12.6134494,17.6593576 Z M5.65519252,-2.84217094e-14 L5.65519252,11.3019889 C6.95732898,9.93018266 8.58497514,9.24428983 10.5381798,9.24428983 C11.6978951,9.24428983 12.7609515,9.46438977 13.7273809,9.90459625 C14.6938103,10.3448027 15.5178062,10.9385607 16.1993932,11.685888 C16.8809803,12.4332153 17.4150517,13.313615 17.8016235,14.3271136 C18.1881952,15.3406123 18.3814782,16.4206376 18.3814782,17.5672219 C18.3814782,18.7342809 18.1831088,19.829662 17.7863641,20.853398 C17.3896194,21.877134 16.8352024,22.7677709 16.1230966,23.5253356 C15.4109907,24.2829002 14.5717356,24.8817768 13.6053062,25.3219833 C12.6388768,25.7621898 11.596166,25.9822897 10.4771425,25.9822897 C8.44255427,25.9822897 6.83525369,25.2349736 5.65519252,23.7403191 L5.65519252,25.4908989 L0.131313131,25.4908989 L0.131313131,-2.84217094e-14 L5.65519252,-2.84217094e-14 Z M25.6983295,17.5672219 C25.6983295,18.0790899 25.7898846,18.55512 25.9729975,18.9953264 C26.1561105,19.4355329 26.4053438,19.8194282 26.720705,20.1470237 C27.0360661,20.4746192 27.4124593,20.7305494 27.8498958,20.9148218 C28.2873322,21.0990943 28.7603669,21.1912292 29.269014,21.1912292 C29.7573151,21.1912292 30.220177,21.0990943 30.6576135,20.9148218 C31.0950499,20.7305494 31.4714431,20.4746192 31.7868043,20.1470237 C32.1021655,19.8194282 32.3564852,19.4406515 32.5497711,19.0106824 C32.7430569,18.5807133 32.8396984,18.120039 32.8396984,17.6286457 C32.8396984,17.1372524 32.7430569,16.6714596 32.5497711,16.2312531 C32.3564852,15.7910466 32.1021655,15.4071514 31.7868043,15.0795558 C31.4714431,14.7519603 31.0950499,14.4960302 30.6576135,14.3117577 C30.220177,14.1274852 29.7573151,14.0353503 29.269014,14.0353503 C28.7603669,14.0353503 28.2873322,14.1274852 27.8498958,14.3117577 C27.4124593,14.4960302 27.0360661,14.7519603 26.720705,15.0795558 C26.4053438,15.4071514 26.1561105,15.7808094 25.9729975,16.2005411 C25.7898846,16.6202729 25.6983295,17.0758286 25.6983295,17.5672219 Z M32.6565864,9.73568065 L38.2109845,9.73568065 L38.2109845,25.4908989 L32.6565864,25.4908989 L32.6565864,23.7403191 C31.4765252,25.2349736 29.8793974,25.9822897 27.8651551,25.9822897 C26.7257857,25.9822897 25.6779885,25.772427 24.721732,25.3526952 C23.7654756,24.9329634 22.9313069,24.3443241 22.219201,23.5867594 C21.5070952,22.8291948 20.9526782,21.9385578 20.5559335,20.9148218 C20.1591888,19.8910858 19.9608194,18.7752303 19.9608194,17.5672219 C19.9608194,16.4411123 20.1541024,15.3713242 20.5406741,14.3578256 C20.9272459,13.3443269 21.4664037,12.4588086 22.1581637,11.7012439 C22.8499237,10.9436793 23.6739196,10.3448027 24.630176,9.90459625 C25.5864325,9.46438977 26.6444025,9.24428983 27.8041178,9.24428983 C29.7573225,9.24428983 31.3747958,9.93018266 32.6565864,11.3019889 L32.6565864,9.73568065 Z M46.5349519,-2.84217094e-14 L46.5349519,25.4908989 L41.0110725,25.4908989 L41.0110725,-2.84217094e-14 L46.5349519,-2.84217094e-14 Z M60.8100601,15.3252512 C60.6269472,14.5472119 60.250554,13.9227423 59.6808693,13.4518237 C59.1111846,12.9809052 58.419435,12.7454494 57.6055997,12.7454494 C56.7510726,12.7454494 56.0542366,12.970668 55.5150707,13.4211118 C54.9759049,13.8715557 54.6351165,14.5062624 54.4926953,15.3252512 L60.8100601,15.3252512 Z M54.3401019,18.5500035 C54.3401019,20.9455457 55.4591087,22.1432989 57.6971557,22.1432989 C58.8975627,22.1432989 59.8029409,21.651913 60.4133174,20.6691264 L65.7540848,20.6691264 C64.675753,24.2726771 61.979964,26.0744255 57.666637,26.0744255 C56.3441547,26.0744255 55.1335929,25.8747999 54.0349152,25.4755429 C52.9362376,25.0762859 51.9952546,24.5081209 51.2119382,23.771031 C50.4286217,23.0339411 49.8233408,22.1535413 49.3960773,21.1298053 C48.9688137,20.1060693 48.7551852,18.9595022 48.7551852,17.6900696 C48.7551852,16.3796875 48.958641,15.1972902 49.3655586,14.1428421 C49.7724762,13.088394 50.3523252,12.1926384 51.1051228,11.4555485 C51.8579205,10.7184586 52.768385,10.1502937 53.8365439,9.75103662 C54.9047027,9.35177958 56.1101781,9.15215405 57.4530063,9.15215405 C58.7754887,9.15215405 59.9657049,9.35177958 61.0236908,9.75103662 C62.0816767,10.1502937 62.9768821,10.7286958 63.7093338,11.4862605 C64.4417856,12.2438251 65.0012889,13.1702923 65.3878607,14.2656898 C65.7744325,15.3610873 65.9677154,16.5946707 65.9677154,17.9664769 L65.9677154,18.5500035 L54.3401019,18.5500035 Z M68.1574301,-2.84217094e-14 L73.6813095,-2.84217094e-14 L73.6813095,11.7319559 C74.4341071,10.8105935 75.1970662,10.1912425 75.9702098,9.87388432 C76.7433533,9.55652616 77.6487315,9.39784946 78.6863715,9.39784946 C80.659922,9.39784946 82.1502355,9.94554001 83.1573567,11.0409375 C84.1644779,12.136335 84.6680309,13.6156114 84.6680309,15.4788109 L84.6680309,25.4908989 L79.1441515,25.4908989 L79.1441515,17.5365099 C79.1441515,16.7379959 79.0831148,16.0930519 78.9610395,15.6016586 C78.8389642,15.1102653 78.6355084,14.7314887 78.3506661,14.4653173 C77.8623649,14.0353482 77.2723432,13.8203669 76.5805832,13.8203669 C75.6446726,13.8203669 74.927491,14.10189 74.4290169,14.6649448 C73.9305428,15.2279996 73.6813095,16.0316203 73.6813095,17.075831 L73.6813095,25.4908989 L68.1574301,25.4908989 L68.1574301,-2.84217094e-14 Z M92.9919983,9.73568065 L92.9919983,18.6114274 C92.9919983,20.5565258 93.9278949,21.5290604 95.799716,21.5290604 C97.6715372,21.5290604 98.6074337,20.5565258 98.6074337,18.6114274 L98.6074337,9.73568065 L104.131313,9.73568065 L104.131313,19.6863448 C104.131313,21.8157157 103.434477,23.4127199 102.040784,24.4774053 C100.647091,25.5420907 98.566756,26.0744255 95.799716,26.0744255 C93.0326761,26.0744255 90.9523408,25.5420907 89.5586479,24.4774053 C88.164955,23.4127199 87.4681189,21.8157157 87.4681189,19.6863448 L87.4681189,9.73568065 L92.9919983,9.73568065 Z M0.508178558,32.9482395 L3.56084875,32.9482395 L3.56084875,34.0174995 C4.39288825,33.2141361 5.32610774,32.8124605 6.36053522,32.8124605 C7.6423258,32.8124605 8.62051972,33.3555712 9.29514634,34.441809 C9.98101674,33.3442562 10.9592107,32.7954881 12.2297575,32.7954881 C12.6345334,32.7954881 13.0168161,32.8548908 13.376617,32.9736981 C13.7364178,33.0925053 14.0456171,33.2791997 14.3042239,33.5337866 C14.5628308,33.7883736 14.7680267,34.1193317 14.9198177,34.5266709 C15.0716087,34.93401 15.147503,35.4262042 15.147503,36.003268 L15.147503,41.6550706 L12.0948328,41.6550706 L12.0948328,37.3610584 C12.0948328,36.9197743 12.0639129,36.5577005 12.0020721,36.2748261 C11.9402313,35.9919516 11.8502825,35.7713129 11.7322228,35.6129032 C11.6141632,35.4544936 11.476429,35.3470029 11.3190161,35.290428 C11.1616032,35.2338531 10.9929491,35.2055661 10.8130486,35.2055661 C9.83484005,35.2055661 9.34574309,35.9240563 9.34574309,37.3610584 L9.34574309,41.6550706 L6.2930729,41.6550706 L6.2930729,37.3610584 C6.2930729,36.9197743 6.26496388,36.5548718 6.20874499,36.2663399 C6.15252611,35.977808 6.07100995,35.7486831 5.96419406,35.5789585 C5.85737818,35.4092338 5.71964398,35.293257 5.55098733,35.2310247 C5.38233067,35.1687923 5.18556753,35.1376766 4.96069199,35.1376766 C4.76954778,35.1376766 4.58965004,35.1659636 4.42099339,35.2225385 C4.25233673,35.2791134 4.10335892,35.3894327 3.97405549,35.5534999 C3.84475205,35.7175671 3.74355958,35.9438632 3.67047503,36.2323951 C3.59739048,36.520927 3.56084875,36.8971444 3.56084875,37.3610584 L3.56084875,41.6550706 L0.508178558,41.6550706 L0.508178558,32.9482395 Z M19.1185442,37.2761965 C19.1185442,37.5590709 19.1691405,37.8221402 19.2703345,38.0654122 C19.3715285,38.3086842 19.5092627,38.5208368 19.6835412,38.7018764 C19.8578198,38.8829161 20.0658265,39.0243512 20.3075677,39.126186 C20.5493089,39.2280207 20.8107228,39.2789374 21.0918172,39.2789374 C21.3616679,39.2789374 21.61746,39.2280207 21.8592012,39.126186 C22.1009424,39.0243512 22.3089491,38.8829161 22.4832277,38.7018764 C22.6575062,38.5208368 22.7980513,38.3115129 22.9048672,38.0738984 C23.0116831,37.8362839 23.0650902,37.5817007 23.0650902,37.3101413 C23.0650902,37.0385818 23.0116831,36.78117 22.9048672,36.537898 C22.7980513,36.294626 22.6575062,36.0824733 22.4832277,35.9014337 C22.3089491,35.7203941 22.1009424,35.578959 21.8592012,35.4771242 C21.61746,35.3752894 21.3616679,35.3243728 21.0918172,35.3243728 C20.8107228,35.3243728 20.5493089,35.3752894 20.3075677,35.4771242 C20.0658265,35.578959 19.8578198,35.7203941 19.6835412,35.9014337 C19.5092627,36.0824733 19.3715285,36.2889685 19.2703345,36.5209256 C19.1691405,36.7528826 19.1185442,37.0046371 19.1185442,37.2761965 Z M22.9638968,32.9482395 L26.0334325,32.9482395 L26.0334325,41.6550706 L22.9638968,41.6550706 L22.9638968,40.687645 C22.3117577,41.5136383 21.4291344,41.9266287 20.3160005,41.9266287 C19.686349,41.9266287 19.1073032,41.8106519 18.5788457,41.5786949 C18.0503881,41.3467379 17.5894002,41.0214372 17.195868,40.602783 C16.8023358,40.1841289 16.4959475,39.6919348 16.2766938,39.126186 C16.0574402,38.5604371 15.947815,37.9437801 15.947815,37.2761965 C15.947815,36.6538728 16.0546293,36.0626741 16.268261,35.5025828 C16.4818928,34.9424914 16.7798484,34.453126 17.1621368,34.0344719 C17.5444253,33.6158177 17.9997914,33.2848596 18.5282489,33.0415876 C19.0567064,32.7983156 19.6413741,32.6766814 20.2822693,32.6766814 C21.3616719,32.6766814 22.2555388,33.0557275 22.9638968,33.8138309 L22.9638968,32.9482395 Z M27.1541906,32.9482395 L30.2068607,32.9482395 L30.2068607,34.3739195 C30.5329303,33.8534305 30.9320784,33.4545836 31.404317,33.1773666 C31.8765556,32.9001497 32.4274924,32.7615433 33.057144,32.7615433 L33.3185605,32.7615433 C33.4141326,32.7615433 33.5237578,32.7728581 33.6474393,32.7954881 L33.6474393,35.7317099 C33.2426633,35.5280403 32.8041626,35.426207 32.331924,35.426207 C31.623566,35.426207 31.0923055,35.6383597 30.7381265,36.0626713 C30.3839476,36.4869829 30.2068607,37.1064686 30.2068607,37.921147 L30.2068607,41.6550706 L27.1541906,41.6550706 L27.1541906,32.9482395 Z M37.1125131,27.5679949 L37.1125131,36.0881299 L40.3169735,32.9482395 L44.4996377,32.9482395 L40.1651833,36.9706937 L44.7526214,41.6550706 L40.4687638,41.6550706 L37.1125131,38.1078431 L37.1125131,41.6550706 L34.0598429,41.6550706 L34.0598429,27.5679949 L37.1125131,27.5679949 Z M50.68007,36.0372127 C50.578876,35.6072436 50.3708693,35.262142 50.0560435,35.0018975 C49.7412178,34.7416531 49.3589351,34.6115328 48.909184,34.6115328 C48.4369454,34.6115328 48.0518518,34.7359957 47.7538917,34.9849252 C47.4559316,35.2338546 47.2676012,35.5846137 47.1888947,36.0372127 L50.68007,36.0372127 Z M47.1045668,37.8193127 C47.1045668,39.143165 47.7229653,39.8050812 48.9597807,39.8050812 C49.6231636,39.8050812 50.1235042,39.5335258 50.4608175,38.9904069 L53.4122942,38.9904069 C52.816374,40.9818428 51.3265959,41.9775459 48.9429152,41.9775459 C48.2120697,41.9775459 47.543075,41.8672265 46.935911,41.6465844 C46.3287471,41.4259424 45.8087302,41.1119565 45.3758448,40.7046173 C44.9429593,40.2972782 44.608462,39.8107415 44.3723427,39.2449926 C44.1362234,38.6792438 44.0181655,38.0456146 44.0181655,37.344086 C44.0181655,36.6199275 44.1306016,35.9664974 44.3554771,35.3837761 C44.5803526,34.8010548 44.9007955,34.306032 45.3168152,33.8986928 C45.732835,33.4913536 46.2359864,33.1773677 46.8262847,32.9567257 C47.416583,32.7360837 48.0827668,32.6257643 48.8248561,32.6257643 C49.5557016,32.6257643 50.2134527,32.7360837 50.7981291,32.9567257 C51.3828055,33.1773677 51.8775243,33.497011 52.2823002,33.9156652 C52.6870762,34.3343193 52.9962754,34.8463144 53.2099072,35.4516656 C53.423539,36.0570169 53.5303532,36.738734 53.5303532,37.4968374 L53.5303532,37.8193127 L47.1045668,37.8193127 Z M57.8387061,35.5110689 L57.8387061,41.6550706 L54.7860359,41.6550706 L54.7860359,35.5110689 L53.774101,35.5110689 L53.774101,32.9482395 L54.7860359,32.9482395 L54.7860359,30.3344929 L57.8387061,30.3344929 L57.8387061,32.9482395 L59.575861,32.9482395 L59.575861,35.5110689 L57.8387061,35.5110689 Z M66.6670347,37.3271136 C66.6670347,37.0555542 66.6192494,36.7981423 66.5236773,36.5548703 C66.4281052,36.3115983 66.290371,36.0994457 66.1104705,35.9184061 C65.9305701,35.7373664 65.7197525,35.5931027 65.4780113,35.4856104 C65.23627,35.3781181 64.9748562,35.3243728 64.6937617,35.3243728 C64.4239111,35.3243728 64.1709299,35.3752894 63.9348106,35.4771242 C63.6986913,35.578959 63.4934954,35.7203941 63.3192169,35.9014337 C63.1449383,36.0824733 63.0043932,36.294626 62.8975773,36.537898 C62.7907615,36.78117 62.7373543,37.0385818 62.7373543,37.3101413 C62.7373543,37.5817007 62.7879506,37.8362839 62.8891445,38.0738984 C62.9903385,38.3115129 63.1308836,38.5180081 63.3107841,38.6933903 C63.4906845,38.8687724 63.7015022,39.0102075 63.9432434,39.1176998 C64.1849846,39.225192 64.4407767,39.2789374 64.7106273,39.2789374 C64.980478,39.2789374 65.2334591,39.2280207 65.4695785,39.126186 C65.7056978,39.0243512 65.9108936,38.8829161 66.0851722,38.7018764 C66.2594507,38.5208368 66.3999958,38.3115129 66.5068117,38.0738984 C66.6136276,37.8362839 66.6670347,37.5873581 66.6670347,37.3271136 Z M62.8216822,46 L59.769012,46 L59.769012,32.9482395 L62.8216822,32.9482395 L62.8216822,33.9156652 C63.4738213,33.0896719 64.3620663,32.6766814 65.486444,32.6766814 C66.1048518,32.6766814 66.6810867,32.7983156 67.2151661,33.0415876 C67.7492455,33.2848596 68.2130444,33.6158177 68.6065766,34.0344719 C69.0001088,34.453126 69.3064971,34.9453201 69.5257507,35.5110689 C69.7450044,36.0768178 69.8546296,36.68216 69.8546296,37.3271136 C69.8546296,37.9720673 69.7450044,38.5717521 69.5257507,39.126186 C69.3064971,39.6806198 69.0029197,40.1671565 68.6150094,40.5858107 C68.227099,41.0044648 67.768922,41.3325942 67.2404645,41.5702087 C66.712007,41.8078232 66.1385829,41.9266287 65.5201752,41.9266287 C64.4407726,41.9266287 63.5412839,41.5532401 62.8216822,40.8064516 L62.8216822,46 Z M73.6907462,27.5679949 L73.6907462,41.6550706 L70.638076,41.6550706 L70.638076,27.5679949 L73.6907462,27.5679949 Z M77.6617874,37.2761965 C77.6617874,37.5590709 77.7123836,37.8221402 77.8135776,38.0654122 C77.9147716,38.3086842 78.0525058,38.5208368 78.2267844,38.7018764 C78.4010629,38.8829161 78.6090697,39.0243512 78.8508109,39.126186 C79.0925521,39.2280207 79.353966,39.2789374 79.6350604,39.2789374 C79.904911,39.2789374 80.1607031,39.2280207 80.4024443,39.126186 C80.6441855,39.0243512 80.8521923,38.8829161 81.0264708,38.7018764 C81.2007494,38.5208368 81.3412945,38.3115129 81.4481104,38.0738984 C81.5549263,37.8362839 81.6083334,37.5817007 81.6083334,37.3101413 C81.6083334,37.0385818 81.5549263,36.78117 81.4481104,36.537898 C81.3412945,36.294626 81.2007494,36.0824733 81.0264708,35.9014337 C80.8521923,35.7203941 80.6441855,35.578959 80.4024443,35.4771242 C80.1607031,35.3752894 79.904911,35.3243728 79.6350604,35.3243728 C79.353966,35.3243728 79.0925521,35.3752894 78.8508109,35.4771242 C78.6090697,35.578959 78.4010629,35.7203941 78.2267844,35.9014337 C78.0525058,36.0824733 77.9147716,36.2889685 77.8135776,36.5209256 C77.7123836,36.7528826 77.6617874,37.0046371 77.6617874,37.2761965 Z M81.5071399,32.9482395 L84.5766757,32.9482395 L84.5766757,41.6550706 L81.5071399,41.6550706 L81.5071399,40.687645 C80.8550008,41.5136383 79.9723776,41.9266287 78.8592437,41.9266287 C78.2295921,41.9266287 77.6505463,41.8106519 77.1220888,41.5786949 C76.5936313,41.3467379 76.1326433,41.0214372 75.7391111,40.602783 C75.345579,40.1841289 75.0391906,39.6919348 74.819937,39.126186 C74.6006833,38.5604371 74.4910581,37.9437801 74.4910581,37.2761965 C74.4910581,36.6538728 74.5978724,36.0626741 74.8115042,35.5025828 C75.0251359,34.9424914 75.3230916,34.453126 75.70538,34.0344719 C76.0876684,33.6158177 76.5430345,33.2848596 77.0714921,33.0415876 C77.5999496,32.7983156 78.1846172,32.6766814 78.8255125,32.6766814 C79.9049151,32.6766814 80.798782,33.0557275 81.5071399,33.8138309 L81.5071399,32.9482395 Z M92.2244136,35.7656546 C91.6959561,35.4035754 91.1618847,35.2225385 90.6221834,35.2225385 C90.3298452,35.2225385 90.0571877,35.2734551 89.8042027,35.3752899 C89.5512177,35.4771247 89.3291565,35.6213885 89.1380123,35.8080856 C88.946868,35.9947827 88.7978902,36.2154215 88.6910744,36.4700084 C88.5842585,36.7245954 88.5308513,37.0102943 88.5308513,37.3271136 C88.5308513,37.632618 88.5842585,37.9126595 88.6910744,38.1672465 C88.7978902,38.4218334 88.9440571,38.6424722 89.1295795,38.8291693 C89.3151018,39.0158664 89.5371631,39.1601302 89.7957699,39.261965 C90.0543768,39.3637998 90.3298452,39.4147164 90.6221834,39.4147164 C91.195616,39.4147164 91.7296874,39.2167073 92.2244136,38.8206831 L92.2244136,41.4344297 C91.4710806,41.762564 90.7571114,41.9266287 90.0824848,41.9266287 C89.4528333,41.9266287 88.8541111,41.819138 88.2863004,41.6041535 C87.7184897,41.3891689 87.2181491,41.0808404 86.7852637,40.6791588 C86.3523783,40.2774771 86.0066373,39.7965978 85.7480304,39.2365064 C85.4894236,38.6764151 85.3601221,38.051272 85.3601221,37.3610584 C85.3601221,36.6708448 85.4838018,36.0400443 85.7311649,35.468638 C85.978528,34.8972317 86.3158362,34.4050376 86.7430997,33.9920409 C87.1703633,33.5790442 87.6791365,33.2565722 88.2694348,33.0246152 C88.8597331,32.7926582 89.4921861,32.6766814 90.1668127,32.6766814 C90.908902,32.6766814 91.5947621,32.8350887 92.2244136,33.1519081 L92.2244136,35.7656546 Z M99.3324529,36.0372127 C99.231259,35.6072436 99.0232522,35.262142 98.7084264,35.0018975 C98.3936007,34.7416531 98.011318,34.6115328 97.5615669,34.6115328 C97.0893283,34.6115328 96.7042347,34.7359957 96.4062746,34.9849252 C96.1083145,35.2338546 95.9199841,35.5846137 95.8412776,36.0372127 L99.3324529,36.0372127 Z M95.7569497,37.8193127 C95.7569497,39.143165 96.3753482,39.8050812 97.6121637,39.8050812 C98.2755465,39.8050812 98.7758871,39.5335258 99.1132004,38.9904069 L102.064677,38.9904069 C101.468757,40.9818428 99.9789788,41.9775459 97.5952981,41.9775459 C96.8644526,41.9775459 96.1954579,41.8672265 95.5882939,41.6465844 C94.98113,41.4259424 94.4611131,41.1119565 94.0282277,40.7046173 C93.5953423,40.2972782 93.2608449,39.8107415 93.0247256,39.2449926 C92.7886063,38.6792438 92.6705484,38.0456146 92.6705484,37.344086 C92.6705484,36.6199275 92.7829845,35.9664974 93.00786,35.3837761 C93.2327356,34.8010548 93.5531784,34.306032 93.9691981,33.8986928 C94.3852179,33.4913536 94.8883694,33.1773677 95.4786677,32.9567257 C96.0689659,32.7360837 96.7351497,32.6257643 97.477239,32.6257643 C98.2080845,32.6257643 98.8658356,32.7360837 99.450512,32.9567257 C100.035188,33.1773677 100.529907,33.497011 100.934683,33.9156652 C101.339459,34.3343193 101.648658,34.8463144 101.86229,35.4516656 C102.075922,36.0570169 102.182736,36.738734 102.182736,37.4968374 L102.182736,37.8193127 L95.7569497,37.8193127 Z" id="BalehuMPlogo" fill="#8886DD"></path>
    </g>
</svg>