<?xml version="1.0" encoding="UTF-8"?>
<svg width="560px" height="560px" viewBox="0 0 560 560" version="1.1" xmlns="http://www.w3.org/2000/svg" xmlns:xlink="http://www.w3.org/1999/xlink">
    <!-- Generator: Sketch 52.6 (67491) - http://www.bohemiancoding.com/sketch -->
    <title>Wordmark/Stylized/Bag/Fill</title>
    <desc>Created with Sketch.</desc>
    <defs>
        <linearGradient x1="-35.0523935%" y1="166.632373%" x2="108.187668%" y2="-8.7641733%" id="linearGradient-1">
            <stop stop-color="#6C90EE" offset="0%"></stop>
            <stop stop-color="#DA68D9" offset="100%"></stop>
        </linearGradient>
    </defs>
    <g id="Wordmark/Stylized/Bag/Fill" stroke="none" stroke-width="1" fill="none" fill-rule="evenodd" opacity="0.0467122396">
        <path d="M163,509 L104,467.657272 L104,191 L163,217.47727 L163,509 Z M202,219.507353 L202,514 L455,475.954471 L455,183 L202,219.507353 Z M317.561546,65 C276.520274,65 240.097857,104.174918 240.019571,148.351721 L240,181.235206 C240,187.194482 245.342998,191.786056 251.253568,190.88728 C256.028995,190.164352 259.571422,186.061243 259.571422,181.235206 L259.571422,148.390798 C259.630137,114.979771 287.284556,84.5386125 317.561546,84.5386125 C328.0714,84.5386125 337.446111,88.3486419 344.648395,95.5583899 C352.907535,103.823223 357.448105,115.780854 357.428533,129.301574 L357.428533,163.43553 C357.428533,169.394807 362.771532,173.98638 368.682101,173.087604 C373.437957,172.364676 376.960813,168.281106 376.960813,163.474607 L376.999956,129.301574 C377.039098,92.1000555 351.165678,65 317.561546,65 Z M193.198795,182.894947 C197.995482,182.170843 201.558735,178.061059 201.558735,173.2076 L201.558735,129.526467 C201.597892,96.061083 229.281627,65.5703999 259.569277,65.5703999 L262.740964,65.8639559 C269.906627,60.3255327 277.718373,55.8243408 286,52.4973728 C278.070783,48.4463 269.201807,46 259.569277,46 C218.533133,46 182.078313,85.2386518 182,129.487326 L182,173.22717 C182,179.215712 187.325301,183.756045 193.198795,182.894947 Z" id="Merchants-Icon" fill="url(#linearGradient-1)"></path>
    </g>
</svg>