<?xml version="1.0" encoding="UTF-8"?>
<svg width="320px" height="320px" viewBox="0 0 320 320" version="1.1" xmlns="http://www.w3.org/2000/svg" xmlns:xlink="http://www.w3.org/1999/xlink">
    <!-- Generator: Sketch 52.6 (67491) - http://www.bohemiancoding.com/sketch -->
    <title>Wordmark/Stylized/Bag/Border</title>
    <desc>Created with Sketch.</desc>
    <defs>
        <linearGradient x1="50%" y1="0%" x2="50%" y2="100%" id="linearGradient-1">
            <stop stop-color="#C96BDB" offset="0%"></stop>
            <stop stop-color="#8583E8" offset="100%"></stop>
        </linearGradient>
    </defs>
    <g id="Wordmark/Stylized/Bag/Border" stroke="none" stroke-width="1" fill="none" fill-rule="evenodd" stroke-dasharray="600">
        <path d="M82.125,313.47875 L43,285.804333 L43,100.612667 L82.125,118.336292 L82.125,313.47875 Z M108.208333,119.744792 L108.208333,317 L277.75,291.516583 L277.75,95.2916667 L108.208333,119.744792 Z M185.975792,17.0416667 C158.627417,17.0416667 134.356875,43.1902083 134.304708,72.6774167 L134.291667,94.6265417 C134.291667,98.60425 137.852042,101.669042 141.790625,101.069125 C144.972792,100.586583 147.333333,97.8478333 147.333333,94.6265417 L147.333333,72.7035 C147.372458,50.40225 165.800333,30.0833333 185.975792,30.0833333 C192.979167,30.0833333 199.226125,32.6264583 204.025458,37.4388333 C209.529042,42.9554583 212.554708,50.9369583 212.541667,59.9617917 L212.541667,82.7455833 C212.541667,86.7232917 216.102042,89.7880833 220.040625,89.1881667 C223.20975,88.705625 225.55725,85.9799167 225.55725,82.7716667 L225.583333,59.9617917 C225.609417,35.1304583 208.368333,17.0416667 185.975792,17.0416667 Z M102.639542,95.2264583 C105.83475,94.7439167 108.208333,92.0051667 108.208333,88.7708333 L108.208333,59.6618333 C108.234417,37.3605833 126.675333,17.0416667 146.850792,17.0416667 L148.963542,17.2372917 C153.736792,13.5465 158.940417,10.5469167 164.457042,8.32983333 C159.175167,5.63020833 153.267292,4 146.850792,4 C119.515458,4 95.231875,30.1485417 95.1797083,59.63575 L95.1797083,88.783875 C95.1797083,92.774625 98.7270417,95.8002917 102.639542,95.2264583 Z" id="Merchants-Icon" stroke="url(#linearGradient-1)" stroke-width="2.8"></path>
    </g>
</svg>