<?xml version="1.0" encoding="UTF-8"?>
<svg width="336px" height="492px" viewBox="0 0 336 492" version="1.1" xmlns="http://www.w3.org/2000/svg" xmlns:xlink="http://www.w3.org/1999/xlink">
    <!-- Generator: sketchtool 53.2 (72643) - https://sketchapp.com -->
    <title>E7AF24C5-C97B-420A-B453-078EE20FE908</title>
    <desc>Created with sketchtool.</desc>
    <defs>
        <linearGradient x1="62.8011231%" y1="62.5836774%" x2="0%" y2="63.6842877%" id="linearGradient-1">
            <stop stop-color="#AB76E1" offset="0%"></stop>
            <stop stop-color="#9B7DE5" stop-opacity="0" offset="49.444034%"></stop>
            <stop stop-color="#AB77E2" stop-opacity="0" offset="100%"></stop>
        </linearGradient>
        <linearGradient x1="-5.19793139%" y1="114.903247%" x2="61.3564122%" y2="-15.7140385%" id="linearGradient-2">
            <stop stop-color="#6C90EE" stop-opacity="0" offset="0%"></stop>
            <stop stop-color="#AB76E1" stop-opacity="0" offset="50.3730575%"></stop>
            <stop stop-color="#AB76E1" offset="50.72102%"></stop>
            <stop stop-color="#B872DF" offset="60.2706313%"></stop>
            <stop stop-color="#F1A0F2" offset="100%"></stop>
        </linearGradient>
        <path d="M253.486152,344.556357 C253.486152,334.968654 251.685812,325.880447 248.085078,317.291463 C244.484343,308.702479 239.483398,301.212199 233.082092,294.820397 C226.680786,288.428595 219.279388,283.335204 210.877674,279.540071 C202.47596,275.744939 193.274221,273.847401 183.272181,273.847401 C173.670222,273.847401 164.668521,275.645068 156.266807,279.240457 C147.865093,282.835846 140.563713,287.829366 134.362448,294.221168 C128.161183,300.61297 123.160238,308.103251 119.359463,316.692235 C115.558688,325.281219 112.522388,334.166116 112.522388,343.753819 C112.522388,353.341522 115.458669,362.533169 119.059403,370.922409 C122.660138,379.311649 127.661083,386.602189 134.062389,392.794247 C140.463694,398.986305 147.965112,403.979825 156.566867,407.774958 C165.168621,411.57009 174.270341,413.467628 183.8723,413.467628 C193.474259,413.467628 202.47596,411.669961 210.877674,408.074572 C219.279388,404.479183 226.580767,399.485663 232.782032,393.093861 C238.983297,386.702059 243.984243,379.311649 247.785018,370.922409 C251.585793,362.533169 253.486152,353.744573 253.486152,344.556357 Z M116.658926,220.516071 C142.264149,193.750401 174.270198,180.367766 212.678034,180.367766 C235.482686,180.367766 256.386637,184.662193 275.390513,193.251177 C294.39439,201.840161 310.597453,213.425128 324.000187,228.006427 C337.402921,242.587725 347.904906,259.765435 355.506457,279.540072 C363.108007,299.314709 366.908726,320.387365 366.908726,342.758672 C366.908726,365.529466 363.007988,386.901734 355.206397,406.876115 C347.404805,426.850496 336.502745,444.227946 322.499888,459.008988 C308.497032,473.79003 291.993913,485.474868 272.990036,494.063852 C253.986159,502.652836 233.482284,506.947263 211.477795,506.947263 C171.469633,506.947263 135.727122,491.959565 112.522388,462.796968 L112.522388,224.71067 C112.522388,224.508125 113.901234,223.109925 116.658926,220.516071 Z M8.03731343,350.441635 C3.59842779,350.441635 3.04578916e-13,346.848549 3.04578916e-13,342.416254 C3.04578916e-13,337.983958 3.59842779,334.390873 8.03731343,334.390873 C12.4761991,334.390873 16.0746269,337.983958 16.0746269,342.416254 C16.0746269,346.848549 12.4761991,350.441635 8.03731343,350.441635 Z" id="path-3"></path>
        <linearGradient x1="46.7455171%" y1="123.453703%" x2="56.7218155%" y2="14.5354084%" id="linearGradient-4">
            <stop stop-color="#6C90EE" offset="0%"></stop>
            <stop stop-color="#B872DF" offset="60.3801259%"></stop>
            <stop stop-color="#F1A0F2" offset="100%"></stop>
        </linearGradient>
        <linearGradient x1="50%" y1="0%" x2="50%" y2="100%" id="linearGradient-5">
            <stop stop-color="#C96BDB" offset="0%"></stop>
            <stop stop-color="#8583E8" offset="100%"></stop>
        </linearGradient>
    </defs>
    <g id="Marketplace---Consumers" stroke="none" stroke-width="1" fill="none" fill-rule="evenodd">
        <g id="MP---Onboarding-Message-Cycle-1" transform="translate(-39.000000, 0.000000)">
            <g id="Onboarding/Cycle-1" transform="translate(-255.000000, -125.000000)">
                <g transform="translate(248.000000, 93.000000)">
                    <g id="Wordmark/Stylized/B•Wallet/Fill" transform="translate(51.000000, 0.000000)" opacity="0.05">
                        <g id="Wordmark/B/Gradient" transform="translate(101.000000, 17.000000)">
                            <g id="Group" transform="translate(-8.037313, 0.000000)">
                                <g id="Shape">
                                    <use fill="url(#linearGradient-1)" xlink:href="#path-3"></use>
                                    <use fill="url(#linearGradient-2)" xlink:href="#path-3"></use>
                                    <use fill-opacity="0.33" fill="" xlink:href="#path-3"></use>
                                </g>
                                <path d="M112.522388,8.02538071 L112.522388,489.548223 C112.522388,493.980519 108.92396,497.573604 104.485075,497.573604 L16.0746269,497.573604 C11.6357412,497.573604 8.03731343,493.980519 8.03731343,489.548223 L8.03731343,8.02538071 C8.03731343,3.59308533 11.6357412,8.14199452e-16 16.0746269,0 L104.485075,0 C108.92396,-8.14199452e-16 112.522388,3.59308533 112.522388,8.02538071 Z" id="B" fill="url(#linearGradient-4)"></path>
                            </g>
                        </g>
                    </g>
                    <g id="Wordmark/Stylized/B•Wallet/Border" transform="translate(0.000000, 90.000000)" stroke="url(#linearGradient-5)" stroke-dasharray="500,100" stroke-width="2.8">
                        <g transform="translate(48.000000, 2.000000)">
                            <path d="M65.2438973,288.787466 L65.2438973,305.480383 C65.2438973,308.246156 62.9969213,310.488258 60.225136,310.488258 L5.01876133,310.488258 C2.24697599,310.488258 -2.91646353e-14,308.246156 -2.91646353e-14,305.480383 L-2.76787835e-14,5.00787514 C-2.76787835e-14,2.24210207 2.24697599,5.0806427e-16 5.01876133,0 L60.225136,0 C62.9969213,-5.0806427e-16 65.2438973,2.24210207 65.2438973,5.00787514 L65.2438973,140.220504 C65.2438973,140.094115 66.1048937,139.221631 67.8268865,137.603054 C83.8156248,120.901151 103.801248,112.550324 127.784355,112.550324 C142.024325,112.550324 155.077435,115.230067 166.944077,120.589633 C178.810719,125.949199 188.92844,133.178273 197.297546,142.277071 C205.666651,151.375869 212.224433,162.094841 216.97109,174.434307 C221.717747,186.773773 224.091039,199.923209 224.091039,213.883008 C224.091039,228.092091 221.655292,241.428485 216.783723,253.892592 C211.912154,266.356699 205.104551,277.20031 196.36071,286.423749 C187.616869,295.647188 177.311782,302.938582 165.44514,308.298148 C153.578499,313.657714 140.775209,316.337457 127.034887,316.337457 C102.052483,316.337457 79.7336914,306.985063 65.2438973,288.787466 Z M153.266279,215.004773 C153.266279,209.022001 152.142088,203.350917 149.893672,197.991351 C147.645256,192.631785 144.522502,187.957815 140.525317,183.969301 C136.528133,179.980787 131.906457,176.802487 126.660153,174.434307 C121.413848,172.066126 115.667981,170.882054 109.42238,170.882054 C103.426604,170.882054 97.8056471,172.003807 92.5593424,174.247346 C87.3130376,176.490885 82.7538173,179.606865 78.8815448,183.59538 C75.0092722,187.583894 71.8865186,192.257864 69.5131903,197.61743 C67.139862,202.976996 65.2438973,208.521214 65.2438973,214.503985 C65.2438973,220.486756 67.0774069,226.222387 69.3258232,231.457312 C71.5742395,236.692237 74.6969931,241.241567 78.6941777,245.105441 C82.6913623,248.969314 87.3754927,252.085294 92.7467094,254.453474 C98.1179262,256.821655 103.801338,258.005727 109.797115,258.005727 C115.792891,258.005727 121.413848,256.883974 126.660153,254.640435 C131.906457,252.396896 136.465678,249.280916 140.33795,245.292401 C144.210223,241.303887 147.332976,236.692237 149.706305,231.457312 C152.079633,226.222387 153.266279,220.738262 153.266279,215.004773 Z"></path>
                        </g>
                    </g>
                    <text id="Seamless-Digital-Pay" font-family="Futura-Bold, Futura" font-size="36" font-weight="bold" letter-spacing="-1.125" fill="#FFFFFF">
                        <tspan x="59" y="161">Seamless </tspan>
                        <tspan x="59" y="207">Digital </tspan>
                        <tspan x="59" y="253">Payments</tspan>
                    </text>
                </g>
            </g>
        </g>
    </g>
</svg>