<?xml version="1.0" encoding="UTF-8"?>
<svg width="320px" height="320px" viewBox="0 0 320 320" version="1.1" xmlns="http://www.w3.org/2000/svg" xmlns:xlink="http://www.w3.org/1999/xlink">
    <!-- Generator: Sketch 52.6 (67491) - http://www.bohemiancoding.com/sketch -->
    <title>Wordmark/Stylized/B•Wallet/Border</title>
    <desc>Created with Sketch.</desc>
    <defs>
        <linearGradient x1="50%" y1="0%" x2="50%" y2="100%" id="linearGradient-1">
            <stop stop-color="#C96BDB" offset="0%"></stop>
            <stop stop-color="#8583E8" offset="100%"></stop>
        </linearGradient>
    </defs>
    <g id="Wordmark/Stylized/B•Wallet/Border" stroke="none" stroke-width="1" fill="none" fill-rule="evenodd" stroke-dasharray="500,100">
        <g transform="translate(48.000000, 2.000000)" stroke="url(#linearGradient-1)" stroke-width="2.8">
            <path d="M65.2438973,288.787466 L65.2438973,305.480383 C65.2438973,308.246156 62.9969213,310.488258 60.225136,310.488258 L5.01876133,310.488258 C2.24697599,310.488258 -2.91646353e-14,308.246156 -2.91646353e-14,305.480383 L-2.76787835e-14,5.00787514 C-2.76787835e-14,2.24210207 2.24697599,5.0806427e-16 5.01876133,0 L60.225136,0 C62.9969213,-5.0806427e-16 65.2438973,2.24210207 65.2438973,5.00787514 L65.2438973,140.220504 C65.2438973,140.094115 66.1048937,139.221631 67.8268865,137.603054 C83.8156248,120.901151 103.801248,112.550324 127.784355,112.550324 C142.024325,112.550324 155.077435,115.230067 166.944077,120.589633 C178.810719,125.949199 188.92844,133.178273 197.297546,142.277071 C205.666651,151.375869 212.224433,162.094841 216.97109,174.434307 C221.717747,186.773773 224.091039,199.923209 224.091039,213.883008 C224.091039,228.092091 221.655292,241.428485 216.783723,253.892592 C211.912154,266.356699 205.104551,277.20031 196.36071,286.423749 C187.616869,295.647188 177.311782,302.938582 165.44514,308.298148 C153.578499,313.657714 140.775209,316.337457 127.034887,316.337457 C102.052483,316.337457 79.7336914,306.985063 65.2438973,288.787466 Z M153.266279,215.004773 C153.266279,209.022001 152.142088,203.350917 149.893672,197.991351 C147.645256,192.631785 144.522502,187.957815 140.525317,183.969301 C136.528133,179.980787 131.906457,176.802487 126.660153,174.434307 C121.413848,172.066126 115.667981,170.882054 109.42238,170.882054 C103.426604,170.882054 97.8056471,172.003807 92.5593424,174.247346 C87.3130376,176.490885 82.7538173,179.606865 78.8815448,183.59538 C75.0092722,187.583894 71.8865186,192.257864 69.5131903,197.61743 C67.139862,202.976996 65.2438973,208.521214 65.2438973,214.503985 C65.2438973,220.486756 67.0774069,226.222387 69.3258232,231.457312 C71.5742395,236.692237 74.6969931,241.241567 78.6941777,245.105441 C82.6913623,248.969314 87.3754927,252.085294 92.7467094,254.453474 C98.1179262,256.821655 103.801338,258.005727 109.797115,258.005727 C115.792891,258.005727 121.413848,256.883974 126.660153,254.640435 C131.906457,252.396896 136.465678,249.280916 140.33795,245.292401 C144.210223,241.303887 147.332976,236.692237 149.706305,231.457312 C152.079633,226.222387 153.266279,220.738262 153.266279,215.004773 Z"></path>
        </g>
    </g>
</svg>