<?xml version="1.0" encoding="UTF-8"?>
<svg width="560px" height="560px" viewBox="0 0 560 560" version="1.1" xmlns="http://www.w3.org/2000/svg" xmlns:xlink="http://www.w3.org/1999/xlink">
    <!-- Generator: Sketch 52.6 (67491) - http://www.bohemiancoding.com/sketch -->
    <title>Wordmark/Stylized/B•Wallet/Fill</title>
    <desc>Created with Sketch.</desc>
    <defs>
        <linearGradient x1="62.8011231%" y1="65.8834843%" x2="0%" y2="67.2727066%" id="linearGradient-1">
            <stop stop-color="#AB76E1" offset="0%"></stop>
            <stop stop-color="#9B7DE5" stop-opacity="0" offset="49.444034%"></stop>
            <stop stop-color="#AB77E2" stop-opacity="0" offset="100%"></stop>
        </linearGradient>
        <linearGradient x1="-5.19793139%" y1="131.922769%" x2="61.3564122%" y2="-32.9461738%" id="linearGradient-2">
            <stop stop-color="#6C90EE" stop-opacity="0" offset="0%"></stop>
            <stop stop-color="#AB76E1" stop-opacity="0" offset="50.3730575%"></stop>
            <stop stop-color="#AB76E1" offset="50.72102%"></stop>
            <stop stop-color="#B872DF" offset="60.2706313%"></stop>
            <stop stop-color="#F1A0F2" offset="100%"></stop>
        </linearGradient>
        <path d="M253.486149,344.556345 C253.486149,334.968642 251.685809,325.880435 248.085075,317.291452 C244.48434,308.702468 239.483395,301.212188 233.08209,294.820386 C226.680784,288.428584 219.279385,283.335193 210.877672,279.540061 C202.475958,275.744929 193.274219,273.847391 183.272179,273.847391 C173.670221,273.847391 164.66852,275.645058 156.266806,279.240447 C147.865092,282.835835 140.563713,287.829356 134.362448,294.221157 C128.161183,300.612959 123.160238,308.10324 119.359463,316.692223 C115.558687,325.281207 112.522388,334.166104 112.522388,343.753807 C112.522388,353.34151 115.458669,362.533156 119.059403,370.922396 C122.660137,379.311636 127.661082,386.602175 134.062388,392.794234 C140.463694,398.986292 147.965111,403.979812 156.566866,407.774944 C165.16862,411.570077 174.27034,413.467614 183.872299,413.467614 C193.474257,413.467614 202.475958,411.669947 210.877672,408.074558 C219.279385,404.47917 226.580765,399.48565 232.78203,393.093848 C238.983295,386.702046 243.98424,379.311636 247.785015,370.922396 C251.58579,362.533156 253.486149,353.74456 253.486149,344.556345 Z M116.658925,220.516061 C142.264148,193.750391 174.270196,180.367756 212.67803,180.367756 C235.482681,180.367756 256.386631,184.662184 275.390507,193.251168 C294.394384,201.840151 310.597445,213.425118 324.000179,228.006416 C337.402913,242.587714 347.904897,259.765424 355.506448,279.540061 C363.107998,299.314698 366.908716,320.387353 366.908716,342.75866 C366.908716,365.529454 363.007979,386.901721 355.206388,406.876102 C347.404797,426.850482 336.502737,444.227933 322.499881,459.008975 C308.497025,473.790016 291.993906,485.474854 272.99003,494.063838 C253.986154,502.652821 233.482279,506.947249 211.477791,506.947249 C171.469631,506.947249 135.727121,491.95955 112.522388,462.796954 L112.522388,224.71066 C112.522388,224.508115 113.901234,223.109915 116.658925,220.516061 Z M8.03731343,350.441624 C3.59842779,350.441624 1.13686838e-13,346.848539 1.13686838e-13,342.416244 C1.13686838e-13,337.983948 3.59842779,334.390863 8.03731343,334.390863 C12.4761991,334.390863 16.0746269,337.983948 16.0746269,342.416244 C16.0746269,346.848539 12.4761991,350.441624 8.03731343,350.441624 Z" id="path-3"></path>
        <linearGradient x1="-23.8054019%" y1="123.453703%" x2="202.437825%" y2="14.5354084%" id="linearGradient-4">
            <stop stop-color="#6C90EE" offset="0%"></stop>
            <stop stop-color="#B872DF" offset="60.3801259%"></stop>
            <stop stop-color="#F1A0F2" offset="100%"></stop>
        </linearGradient>
    </defs>
    <g id="Wordmark/Stylized/B•Wallet/Fill" stroke="none" stroke-width="1" fill="none" fill-rule="evenodd" opacity="0.05">
        <g id="Wordmark/B/Gradient" transform="translate(101.000000, 17.000000)">
            <g id="Group" transform="translate(-8.037313, 0.000000)">
                <g id="Shape">
                    <use fill="url(#linearGradient-1)" xlink:href="#path-3"></use>
                    <use fill="url(#linearGradient-2)" xlink:href="#path-3"></use>
                    <use fill-opacity="0.33" fill="" xlink:href="#path-3"></use>
                </g>
                <path d="M112.522388,8.02538071 L112.522388,489.548223 C112.522388,493.980519 108.92396,497.573604 104.485075,497.573604 L16.0746269,497.573604 C11.6357412,497.573604 8.03731343,493.980519 8.03731343,489.548223 L8.03731343,8.02538071 C8.03731343,3.59308533 11.6357412,8.14199452e-16 16.0746269,0 L104.485075,0 C108.92396,-8.14199452e-16 112.522388,3.59308533 112.522388,8.02538071 Z" id="B" fill="url(#linearGradient-4)"></path>
            </g>
        </g>
    </g>
</svg>