<?xml version="1.0" encoding="UTF-8"?>
<svg width="134px" height="197px" viewBox="0 0 134 197" version="1.1" xmlns="http://www.w3.org/2000/svg" xmlns:xlink="http://www.w3.org/1999/xlink">
    <!-- Generator: Sketch 52.6 (67491) - http://www.bohemiancoding.com/sketch -->
    <title>Wordmark/B/Gradient</title>
    <desc>Created with Sketch.</desc>
    <defs>
        <linearGradient x1="62.8011231%" y1="65.8834843%" x2="0%" y2="67.2727066%" id="linearGradient-1">
            <stop stop-color="#AB76E1" offset="0%"></stop>
            <stop stop-color="#9B7DE5" stop-opacity="0" offset="49.444034%"></stop>
            <stop stop-color="#AB77E2" stop-opacity="0" offset="100%"></stop>
        </linearGradient>
        <linearGradient x1="-5.19793139%" y1="131.922769%" x2="61.3564122%" y2="-32.9461738%" id="linearGradient-2">
            <stop stop-color="#6C90EE" stop-opacity="0" offset="0%"></stop>
            <stop stop-color="#AB76E1" stop-opacity="0" offset="50.3730575%"></stop>
            <stop stop-color="#AB76E1" offset="50.72102%"></stop>
            <stop stop-color="#B872DF" offset="60.2706313%"></stop>
            <stop stop-color="#F1A0F2" offset="100%"></stop>
        </linearGradient>
        <path d="M94.616,128.8 C94.616,125.215982 93.9440067,121.818683 92.6,118.608 C91.2559933,115.397317 89.3893453,112.597345 87,110.208 C84.6106547,107.818655 81.8480157,105.914674 78.712,104.496 C75.5759843,103.077326 72.141352,102.368 68.408,102.368 C64.8239821,102.368 61.4640157,103.039993 58.328,104.384 C55.1919843,105.728007 52.4666782,107.594655 50.152,109.984 C47.8373218,112.373345 45.9706738,115.173317 44.552,118.384 C43.1333262,121.594683 42,124.915982 42,128.5 C42,132.084018 43.0959933,135.519984 44.44,138.656 C45.7840067,141.792016 47.6506547,144.517322 50.04,146.832 C52.4293453,149.146678 55.2293173,151.013326 58.44,152.432 C61.6506827,153.850674 65.0479821,154.56 68.632,154.56 C72.2160179,154.56 75.5759843,153.888007 78.712,152.544 C81.8480157,151.199993 84.5733218,149.333345 86.888,146.944 C89.2026782,144.554655 91.0693262,141.792016 92.488,138.656 C93.9066738,135.519984 94.616,132.234684 94.616,128.8 Z M43.544,82.432 C53.1013811,72.4266166 65.0479283,67.424 79.384,67.424 C87.8960426,67.424 95.6986312,69.0293173 102.792,72.24 C109.885369,75.4506827 115.933308,79.7813061 120.936,85.232 C125.938692,90.6826939 129.858652,97.103963 132.696,104.496 C135.533348,111.888037 136.952,119.765292 136.952,128.128 C136.952,136.640043 135.496015,144.629296 132.584,152.096 C129.671985,159.562704 125.602693,166.058639 120.376,171.584 C115.149307,177.109361 108.989369,181.477317 101.896,184.688 C94.8026312,187.898683 87.1493744,189.504 78.936,189.504 C64.002592,189.504 50.6613766,183.901388 42,173 L42,84 C42,83.9242857 42.5146667,83.401619 43.544,82.432 Z M3,131 C1.34314575,131 1.13686838e-13,129.656854 1.13686838e-13,128 C1.13686838e-13,126.343146 1.34314575,125 3,125 C4.65685425,125 6,126.343146 6,128 C6,129.656854 4.65685425,131 3,131 Z" id="path-3"></path>
        <linearGradient x1="-23.8054019%" y1="123.453703%" x2="202.437825%" y2="14.5354084%" id="linearGradient-4">
            <stop stop-color="#6C90EE" offset="0%"></stop>
            <stop stop-color="#B872DF" offset="60.3801259%"></stop>
            <stop stop-color="#F1A0F2" offset="100%"></stop>
        </linearGradient>
    </defs>
    <g id="Wordmark/B/Gradient" stroke="none" stroke-width="1" fill="none" fill-rule="evenodd">
        <g id="Group" transform="translate(-3.000000, 0.000000)">
            <g id="Shape">
                <use fill="url(#linearGradient-1)" xlink:href="#path-3"></use>
                <use fill="url(#linearGradient-2)" xlink:href="#path-3"></use>
                <use fill-opacity="0.33" fill="" xlink:href="#path-3"></use>
            </g>
            <path d="M42,3 L42,183 C42,184.656854 40.6568542,186 39,186 L6,186 C4.34314575,186 3,184.656854 3,183 L3,3 C3,1.34314575 4.34314575,3.04359188e-16 6,0 L39,0 C40.6568542,-3.04359188e-16 42,1.34314575 42,3 Z" id="B" fill="url(#linearGradient-4)"></path>
        </g>
    </g>
</svg>